<?xml version="1.0" encoding="UTF-8" standalone="no"?>
<svg
   xmlns:dc="http://purl.org/dc/elements/1.1/"
   xmlns:cc="http://creativecommons.org/ns#"
   xmlns:rdf="http://www.w3.org/1999/02/22-rdf-syntax-ns#"
   xmlns:svg="http://www.w3.org/2000/svg"
   xmlns="http://www.w3.org/2000/svg"
   xmlns:sodipodi="http://sodipodi.sourceforge.net/DTD/sodipodi-0.dtd"
   xmlns:inkscape="http://www.inkscape.org/namespaces/inkscape"
   width="152pt"
   height="130pt"
   viewBox="0 0 152 130"
   version="1.1"
   id="svg2"
   inkscape:version="0.91 r13725"
   sodipodi:docname="trabucco.svg">
  <metadata
     id="metadata332">
    <rdf:RDF>
      <cc:Work
         rdf:about="">
        <dc:format>image/svg+xml</dc:format>
        <dc:type
           rdf:resource="http://purl.org/dc/dcmitype/StillImage" />
      </cc:Work>
    </rdf:RDF>
  </metadata>
  <defs
     id="defs330" />
  <sodipodi:namedview
     pagecolor="#ffffff"
     bordercolor="#666666"
     borderopacity="1"
     objecttolerance="10"
     gridtolerance="10"
     guidetolerance="10"
     inkscape:pageopacity="0"
     inkscape:pageshadow="2"
     inkscape:window-width="1860"
     inkscape:window-height="1048"
     id="namedview328"
     showgrid="false"
     inkscape:zoom="5.809231"
     inkscape:cx="134.79335"
     inkscape:cy="74.308098"
     inkscape:window-x="0"
     inkscape:window-y="0"
     inkscape:window-maximized="1"
     inkscape:current-layer="svg2" />
  <ellipse
     style="fill:#ffffff;fill-rule:evenodd;stroke:#000000;stroke-width:0;stroke-linecap:butt;stroke-linejoin:miter;stroke-opacity:1;fill-opacity:1;stroke-miterlimit:4;stroke-dasharray:none"
     id="path3485"
     cx="138.22827"
     cy="46.753178"
     rx="6.6072397"
     ry="4.9891257" />
  <rect
     style="fill:#ffffff;fill-opacity:1;fill-rule:evenodd;stroke:#000000;stroke-width:0;stroke-linecap:butt;stroke-linejoin:miter;stroke-miterlimit:4;stroke-dasharray:none;stroke-opacity:1"
     id="rect3668"
     width="32.579838"
     height="5.7141976"
     x="81.258514"
     y="0.20644271"
     transform="matrix(0.98432466,0.17636597,-0.15281484,0.98825484,0,0)" />
  <path
     fill="#b9955b"
     d=" M 42.64 1.60 C 44.75 0.06 46.91 2.06 48.49 3.36 C 45.14 5.07 41.61 6.36 38.17 7.87 C 38.95 5.38 40.09 2.71 42.64 1.60 Z"
     id="path4" />
  <path
     fill="#412c00"
     d=" M 48.49 3.36 L 49.22 3.01 C 49.09 6.53 45.62 7.07 42.86 7.69 C 43.13 8.01 43.65 8.65 43.92 8.97 C 45.21 10.10 46.78 10.82 48.37 11.40 C 49.29 13.53 50.30 15.62 51.32 17.69 C 51.98 16.79 52.65 15.88 53.31 14.98 C 53.49 17.89 53.47 20.82 53.24 23.72 C 54.45 22.73 55.66 21.74 56.88 20.76 C 59.52 23.42 58.40 27.00 57.60 30.17 C 57.11 29.12 56.62 28.06 56.14 26.99 C 56.47 30.74 56.67 34.53 56.04 38.26 C 54.34 38.29 52.63 38.30 50.93 38.31 C 50.93 34.24 51.19 30.17 51.73 26.14 C 51.31 26.20 50.48 26.34 50.06 26.41 C 46.31 26.82 43.24 29.29 40.85 32.04 C 41.26 27.17 40.52 22.07 42.25 17.39 C 42.84 15.23 45.51 15.17 47.18 14.23 C 46.62 13.67 46.05 13.11 45.48 12.55 C 45.26 12.35 44.82 11.95 44.60 11.75 C 40.08 12.39 35.55 13.37 31.39 15.30 C 31.34 15.74 31.23 16.62 31.18 17.06 C 31.14 17.75 31.07 19.12 31.03 19.81 C 30.27 19.86 28.76 19.97 28.01 20.03 C 28.01 21.32 28.01 22.61 28.02 23.90 C 26.85 24.48 25.67 25.05 24.49 25.61 C 22.04 21.41 22.57 16.47 23.10 11.86 C 24.59 11.05 26.07 10.24 27.49 9.32 C 27.67 10.30 28.01 12.27 28.19 13.25 C 31.56 11.54 35.05 10.02 38.17 7.87 C 41.61 6.36 45.14 5.07 48.49 3.36 Z"
     id="path6" />
  <path
     fill="#936d54"
     d=" M 18.66 10.08 C 20.92 6.61 25.13 6.65 28.50 8.34 C 28.25 8.58 27.74 9.07 27.49 9.32 C 26.07 10.24 24.59 11.05 23.10 11.86 C 21.63 11.26 20.15 10.67 18.66 10.08 Z"
     id="path8" />
  <path
     fill="#936d54"
     d=" M 43.92 8.97 C 45.53 8.12 47.17 7.35 48.82 6.59 C 49.61 8.56 50.37 10.54 51.22 12.49 C 50.27 12.12 49.32 11.75 48.37 11.40 C 46.78 10.82 45.21 10.10 43.92 8.97 Z"
     id="path10" />
  <path
     fill="#6d4b55"
     d=" M 18.02 9.82 L 18.66 10.08 C 20.15 10.67 21.63 11.26 23.10 11.86 C 22.57 16.47 22.04 21.41 24.49 25.61 L 24.75 26.19 C 22.92 26.79 21.08 26.74 19.31 25.96 C 20.73 23.88 20.24 21.34 20.06 19.01 C 20.77 19.97 21.48 20.93 22.20 21.88 C 21.94 20.48 21.68 19.08 21.42 17.68 C 20.83 17.49 19.63 17.11 19.03 16.92 C 19.02 18.58 19.01 20.24 19.03 21.91 L 18.00 22.01 C 17.99 17.95 18.01 13.88 18.02 9.82 Z"
     id="path12" />
  <path
     fill="#b9955b"
     d=" M 64.19 10.31 C 66.13 10.60 67.63 12.08 69.24 13.08 C 65.93 13.47 62.60 13.57 59.27 13.54 C 60.81 12.32 62.36 11.06 64.19 10.31 Z"
     id="path14" />
  <path
     fill="#b9955b"
     d=" M 31.39 15.30 C 35.55 13.37 40.08 12.39 44.60 11.75 C 44.82 11.95 45.26 12.35 45.48 12.55 C 43.32 13.56 41.16 14.58 39.11 15.79 L 38.39 16.21 C 36.28 17.95 33.64 17.79 31.18 17.06 C 31.23 16.62 31.34 15.74 31.39 15.30 Z"
     id="path16" />
  <path
     fill="#6d4b55"
     d=" M 51.32 17.69 C 50.30 15.62 49.29 13.53 48.37 11.40 C 49.32 11.75 50.27 12.12 51.22 12.49 C 52.49 13.00 53.73 13.59 54.96 14.19 C 54.99 15.46 55.06 16.73 55.16 18.00 C 55.71 18.94 56.30 19.85 56.88 20.76 C 55.66 21.74 54.45 22.73 53.24 23.72 C 53.47 20.82 53.49 17.89 53.31 14.98 C 52.65 15.88 51.98 16.79 51.32 17.69 Z"
     id="path18" />
  <path
     fill="#7b98af"
     d=" M 54.91 12.14 C 56.39 12.48 58.04 12.54 59.27 13.54 C 60.65 14.55 61.94 15.69 63.44 16.52 C 65.40 16.74 67.30 15.97 69.15 15.44 L 70.16 15.12 C 69.12 15.97 68.08 16.81 67.03 17.63 L 66.34 18.18 C 65.58 18.09 64.08 17.93 63.33 17.85 C 62.15 17.64 60.97 17.41 59.80 17.18 C 60.46 15.28 57.66 12.22 56.57 14.93 C 56.08 15.94 55.63 16.97 55.16 18.00 C 55.06 16.73 54.99 15.46 54.96 14.19 C 54.95 13.68 54.92 12.65 54.91 12.14 Z"
     id="path20" />
  <path
     fill="#6d4b55"
     d=" M 39.11 15.79 C 41.16 14.58 43.32 13.56 45.48 12.55 C 46.05 13.11 46.62 13.67 47.18 14.23 C 45.51 15.17 42.84 15.23 42.25 17.39 C 40.52 22.07 41.26 27.17 40.85 32.04 L 40.76 32.92 C 41.45 32.87 42.82 32.78 43.51 32.74 C 44.86 32.66 46.22 32.60 47.57 32.54 C 45.96 33.98 44.15 35.23 42.76 36.90 C 41.85 39.09 41.96 41.56 41.62 43.89 C 44.52 42.17 47.65 40.88 50.96 40.23 C 50.49 37.75 50.05 35.25 49.59 32.76 C 49.07 34.65 48.56 36.53 48.04 38.42 C 47.91 35.61 47.82 32.81 47.75 30.00 C 48.52 30.65 49.30 31.31 50.08 31.96 C 50.07 30.11 50.07 28.26 50.06 26.41 C 50.48 26.34 51.31 26.20 51.73 26.14 C 51.19 30.17 50.93 34.24 50.93 38.31 C 52.63 38.30 54.34 38.29 56.04 38.26 C 55.82 39.51 55.54 40.74 55.27 41.98 C 54.25 41.38 53.23 40.77 52.21 40.16 C 51.72 41.98 51.24 43.80 50.75 45.61 C 50.08 44.61 49.41 43.61 48.73 42.61 C 47.96 42.74 47.18 42.86 46.40 42.98 C 47.13 43.81 47.86 44.64 48.60 45.47 C 46.74 45.73 44.20 45.06 43.04 46.94 C 42.38 47.78 41.75 48.64 41.14 49.52 C 39.45 45.86 38.59 41.89 38.37 37.87 C 38.27 40.53 38.12 43.17 37.94 45.82 L 36.93 45.86 C 36.96 43.72 37.00 41.58 37.03 39.43 C 33.88 41.83 30.49 44.54 30.27 48.84 C 32.23 49.31 34.21 49.71 36.20 50.03 C 36.18 51.31 36.14 52.59 36.09 53.88 C 36.06 54.39 36.00 55.43 35.97 55.94 C 35.09 55.60 34.22 55.26 33.35 54.91 C 32.35 54.50 31.36 54.08 30.37 53.64 C 26.82 51.89 23.13 50.34 19.78 48.22 C 17.08 45.91 18.61 42.43 19.10 39.53 C 21.74 40.87 24.38 42.22 27.01 43.58 C 28.03 40.11 30.04 37.08 32.94 34.89 C 29.38 33.91 25.82 34.82 22.57 36.34 C 25.00 33.15 28.15 30.62 30.77 27.61 C 31.19 25.03 30.90 22.40 31.03 19.81 C 31.07 19.12 31.14 17.75 31.18 17.06 C 33.64 17.79 36.28 17.95 38.39 16.21 C 38.06 17.92 37.82 19.63 37.57 21.35 C 36.74 21.60 35.91 21.84 35.08 22.09 C 35.09 22.32 35.12 22.77 35.13 23.00 C 35.59 23.15 36.50 23.46 36.96 23.61 C 36.63 26.55 36.51 29.54 37.25 32.43 C 38.64 27.00 39.32 21.39 39.11 15.79 Z"
     id="path22" />
  <path
     fill="#6d4b55"
     d=" M 59.27 13.54 C 62.60 13.57 65.93 13.47 69.24 13.08 C 69.22 13.67 69.17 14.85 69.15 15.44 C 67.30 15.97 65.40 16.74 63.44 16.52 C 61.94 15.69 60.65 14.55 59.27 13.54 Z"
     id="path24" />
  <path
     fill="#434661"
     d=" M 56.57 14.93 C 57.66 12.22 60.46 15.28 59.80 17.18 C 58.42 17.05 57.00 16.32 56.57 14.93 Z"
     id="path26" />
  <path
     fill="#6d4b55"
     d=" M 70.16 15.12 C 73.51 14.73 77.13 16.32 80.22 14.50 C 81.34 15.96 83.11 17.13 83.20 19.13 C 82.23 21.01 81.24 22.88 80.26 24.75 C 77.29 23.89 74.17 23.94 71.10 23.90 C 74.10 34.78 76.26 45.88 79.15 56.81 C 78.21 55.87 77.17 55.04 75.97 54.47 C 74.73 56.11 74.57 58.19 74.49 60.16 C 72.22 53.03 72.04 45.39 69.11 38.47 C 68.64 49.39 69.10 60.32 68.96 71.24 C 68.95 72.48 68.94 73.72 68.93 74.96 C 70.65 74.80 72.36 74.61 74.09 74.54 C 75.28 74.72 76.46 74.97 77.64 75.22 C 78.05 74.49 78.47 73.75 78.89 73.02 C 79.06 74.81 79.22 76.60 79.43 78.39 C 75.88 78.75 72.35 79.31 68.88 80.15 C 70.71 81.04 72.55 81.91 74.38 82.81 C 72.52 82.89 70.66 82.94 68.80 83.01 C 68.12 83.04 66.75 83.10 66.06 83.13 C 66.12 85.26 66.27 87.45 66.99 89.48 C 67.60 87.56 68.18 85.63 68.70 83.68 C 68.88 84.33 69.24 85.64 69.41 86.29 C 69.50 86.78 69.67 87.76 69.76 88.25 C 69.97 89.61 70.09 90.99 70.22 92.37 C 66.35 92.23 62.44 93.00 58.68 91.45 C 61.67 93.50 65.25 94.37 68.63 92.71 C 69.02 93.24 69.81 94.30 70.20 94.84 C 73.75 94.95 77.30 94.96 80.84 95.25 C 80.93 95.70 81.12 96.59 81.22 97.04 C 77.06 96.59 72.79 95.93 68.70 97.20 C 72.30 97.38 75.90 97.70 79.40 98.63 C 74.92 98.92 70.38 98.82 65.97 99.78 C 64.88 100.01 63.79 100.26 62.71 100.51 C 63.93 101.85 65.16 103.19 66.39 104.54 C 63.97 104.85 61.79 103.71 59.80 102.50 C 59.81 99.56 59.72 96.63 59.55 93.69 C 58.57 93.50 57.60 93.30 56.62 93.11 C 57.12 92.07 57.61 91.04 58.11 90.00 C 55.93 90.80 53.44 91.16 51.65 92.72 C 49.43 95.52 49.29 99.29 48.66 102.67 C 49.78 103.15 50.89 103.63 52.01 104.12 C 52.15 101.62 52.33 99.13 52.56 96.65 C 53.92 96.55 55.28 96.45 56.64 96.35 C 56.49 97.28 56.35 98.21 56.21 99.15 C 55.56 98.88 54.25 98.36 53.60 98.09 C 53.18 100.65 52.83 103.21 52.53 105.78 C 50.60 106.02 48.68 106.26 46.75 106.45 C 46.52 102.65 47.02 98.83 48.35 95.25 C 49.20 93.06 50.10 90.89 50.98 88.71 C 54.00 88.62 57.01 88.27 59.99 87.76 C 58.60 87.08 57.21 86.41 55.83 85.72 C 55.53 85.42 54.95 84.81 54.65 84.50 C 55.90 83.83 57.11 83.10 58.32 82.35 C 56.57 82.38 54.82 82.44 53.07 82.50 C 53.11 83.23 53.18 84.70 53.22 85.44 L 53.27 86.19 C 51.95 86.15 50.62 86.12 49.30 86.11 L 49.37 85.32 C 51.41 82.59 52.74 79.44 53.71 76.19 C 55.93 77.03 58.17 77.80 60.43 78.55 C 60.39 76.63 60.35 74.70 60.12 72.79 C 59.33 68.99 58.31 65.25 57.25 61.52 C 56.71 63.42 56.21 65.35 55.85 67.30 C 54.95 66.29 54.07 65.28 53.19 64.26 C 53.45 63.70 53.97 62.57 54.23 62.01 C 54.79 60.67 55.28 59.31 55.69 57.91 C 56.97 58.97 58.27 60.01 59.58 61.04 C 60.16 57.08 60.04 53.07 59.32 49.14 C 58.71 49.28 57.51 49.56 56.91 49.69 C 58.35 38.95 61.79 28.59 63.33 17.85 C 64.08 17.93 65.58 18.09 66.34 18.18 C 65.88 20.36 65.56 22.58 65.24 24.79 C 65.82 24.84 67.00 24.94 67.59 24.99 C 67.40 22.54 67.22 20.09 67.03 17.63 C 68.08 16.81 69.12 15.97 70.16 15.12 Z"
     id="path28" />
  <path
     fill="#936d54"
     d=" M 55.16 18.00 C 55.63 16.97 56.08 15.94 56.57 14.93 C 57.00 16.32 58.42 17.05 59.80 17.18 C 60.97 17.41 62.15 17.64 63.33 17.85 C 61.79 28.59 58.35 38.95 56.91 49.69 C 56.54 52.44 56.21 55.19 55.69 57.91 C 55.28 59.31 54.79 60.67 54.23 62.01 C 53.21 61.25 52.19 60.48 51.17 59.73 C 52.78 55.62 53.51 51.25 54.24 46.92 C 54.55 45.26 54.90 43.62 55.27 41.98 C 55.54 40.74 55.82 39.51 56.04 38.26 C 56.67 34.53 56.47 30.74 56.14 26.99 C 56.62 28.06 57.11 29.12 57.60 30.17 C 58.40 27.00 59.52 23.42 56.88 20.76 C 56.30 19.85 55.71 18.94 55.16 18.00 Z"
     id="path30" />
  <path
     fill="#7b98af"
     d=" M 86.64 15.35 C 87.64 14.51 89.42 14.52 90.40 15.40 C 90.36 16.95 86.66 16.89 86.64 15.35 Z"
     id="path32" />
  <path
     fill="#412c00"
     d=" M 38.39 16.21 L 39.11 15.79 C 39.32 21.39 38.64 27.00 37.25 32.43 C 36.51 29.54 36.63 26.55 36.96 23.61 C 36.50 23.46 35.59 23.15 35.13 23.00 C 35.12 22.77 35.09 22.32 35.08 22.09 C 35.91 21.84 36.74 21.60 37.57 21.35 C 37.82 19.63 38.06 17.92 38.39 16.21 Z"
     id="path34" />
  <path
     fill="#6d4b55"
     d=" M 46.55 15.92 C 47.64 15.84 48.73 15.76 49.81 15.68 C 49.94 17.32 50.06 18.96 50.18 20.61 C 50.66 20.60 51.63 20.59 52.11 20.59 C 51.09 21.72 50.06 22.86 49.04 24.01 C 48.99 21.56 48.90 19.12 48.74 16.68 C 48.05 19.47 47.66 22.50 45.51 24.62 C 45.57 23.97 45.70 22.68 45.76 22.04 L 45.84 21.22 C 46.05 19.45 46.33 17.69 46.55 15.92 Z"
     id="path36" />
  <path
     fill="#7b98af"
     d=" M 95.18 16.02 C 96.85 16.50 98.50 17.04 100.14 17.62 C 98.70 18.21 97.17 18.48 95.63 18.63 C 95.52 17.98 95.29 16.67 95.18 16.02 Z"
     id="path38" />
  <path
     fill="#412c00"
     d=" M 19.03 16.92 C 19.63 17.11 20.83 17.49 21.42 17.68 C 21.68 19.08 21.94 20.48 22.20 21.88 C 21.48 20.93 20.77 19.97 20.06 19.01 C 20.24 21.34 20.73 23.88 19.31 25.96 C 19.24 24.94 19.10 22.92 19.03 21.91 C 19.01 20.24 19.02 18.58 19.03 16.92 Z"
     id="path40" />
  <path
     d=" M 84.02 17.63 C 86.74 17.84 89.48 17.55 92.19 17.80 C 93.96 18.27 95.38 19.58 97.08 20.25 C 99.67 19.81 102.05 18.48 104.70 18.31 C 105.64 19.01 106.45 19.87 107.30 20.68 C 108.46 20.19 109.62 19.69 110.78 19.20 C 112.77 20.96 115.32 21.58 117.93 21.34 C 117.33 22.87 116.71 24.38 116.09 25.90 C 113.40 26.01 110.69 26.17 108.00 25.91 C 105.63 24.46 102.87 21.91 99.95 23.51 C 95.01 25.90 89.51 24.43 84.27 24.84 C 82.93 24.87 81.60 24.81 80.26 24.75 C 81.24 22.88 82.23 21.01 83.20 19.13 C 83.40 18.76 83.81 18.01 84.02 17.63 Z"
     id="path42"
     fill="#7b98af" />
  <path
     fill="#000000"
     d=" M 41.59 20.97 C 42.68 19.87 43.79 18.78 44.91 17.71 C 45.27 18.86 45.57 20.04 45.84 21.22 L 45.76 22.04 C 44.37 21.69 42.97 21.34 41.59 20.97 Z"
     id="path44" />
  <path
     fill="#412c00"
     d=" M 66.34 18.18 L 67.03 17.63 C 67.22 20.09 67.40 22.54 67.59 24.99 C 67.00 24.94 65.82 24.84 65.24 24.79 C 65.56 22.58 65.88 20.36 66.34 18.18 Z"
     id="path46" />
  <path
     fill="#412c00"
     d=" M 72.34 19.80 C 75.35 18.42 78.64 19.31 81.66 20.16 C 79.14 22.99 75.18 20.93 72.34 19.80 Z"
     id="path48" />
  <path
     fill="#412c00"
     d=" M 117.93 21.34 C 126.61 23.05 135.66 24.10 143.56 28.41 C 143.70 28.86 143.99 29.77 144.13 30.22 L 142.93 30.01 C 141.75 29.77 140.57 29.53 139.39 29.29 C 131.71 27.70 124.06 24.90 116.09 25.90 C 116.71 24.38 117.33 22.87 117.93 21.34 Z"
     id="path50" />
  <path
     fill="#434661"
     d=" M 99.95 23.51 C 102.87 21.91 105.63 24.46 108.00 25.91 L 108.47 26.85 C 106.24 26.46 104.11 25.65 101.90 25.16 C 96.11 25.56 89.77 27.11 84.27 24.84 C 89.51 24.43 95.01 25.90 99.95 23.51 Z"
     id="path52" />
  <path
     fill="#936d54"
     d=" M 40.85 32.04 C 43.24 29.29 46.31 26.82 50.06 26.41 C 47.87 28.51 45.66 30.60 43.51 32.74 C 42.82 32.78 41.45 32.87 40.76 32.92 L 40.85 32.04 Z"
     id="path54" />
  <path
     fill="#412c00"
     d=" M 43.51 32.74 C 45.66 30.60 47.87 28.51 50.06 26.41 C 50.07 28.26 50.07 30.11 50.08 31.96 C 49.30 31.31 48.52 30.65 47.75 30.00 C 47.82 32.81 47.91 35.61 48.04 38.42 C 48.56 36.53 49.07 34.65 49.59 32.76 C 50.05 35.25 50.49 37.75 50.96 40.23 C 47.65 40.88 44.52 42.17 41.62 43.89 C 41.96 41.56 41.85 39.09 42.76 36.90 C 44.15 35.23 45.96 33.98 47.57 32.54 C 46.22 32.60 44.86 32.66 43.51 32.74 Z"
     id="path56" />
  <path
     fill="#6d4b55"
     d=" M 108.58 26.95 C 113.30 27.89 117.49 30.49 122.23 31.40 C 121.86 32.21 121.49 33.01 121.12 33.82 C 120.46 33.22 119.80 32.62 119.14 32.02 C 115.92 29.78 111.73 29.36 108.58 26.95 Z"
     id="path58" />
  <path
     fill="#434661"
     d=" M 52.07 29.29 C 53.03 29.34 53.98 29.38 54.94 29.42 C 54.94 30.99 54.94 32.55 54.94 34.11 C 54.32 33.01 53.71 31.90 53.11 30.79 C 53.02 32.97 52.86 35.16 52.38 37.29 C 52.11 34.63 52.06 31.96 52.07 29.29 Z"
     id="path60" />
  <path
     fill="#6d4b55"
     d=" M 130.30 29.10 C 133.29 27.55 130.48 32.39 130.30 29.10 Z"
     id="path62" />
  <path
     d=" M 122.23 31.40 C 124.59 31.02 126.89 30.34 129.26 30.04 C 127.58 30.87 125.80 31.45 124.05 32.08 C 124.02 32.80 123.96 34.23 123.93 34.95 C 124.90 35.47 125.87 35.98 126.86 36.47 C 126.97 38.54 127.15 40.60 127.49 42.64 C 126.58 43.33 125.70 44.06 124.85 44.82 C 123.50 44.76 122.15 44.74 120.80 44.70 C 120.10 42.12 119.50 39.53 118.96 36.92 C 118.33 37.70 117.70 38.49 117.08 39.28 C 116.54 36.55 117.20 34.02 119.14 32.02 C 119.80 32.62 120.46 33.22 121.12 33.82 C 121.49 33.01 121.86 32.21 122.23 31.40 Z"
     id="path64"
     fill="#412c00" />
  <path
     fill="#000000"
     d=" M 139.39 29.29 C 140.57 29.53 141.75 29.77 142.93 30.01 C 142.98 30.53 143.06 31.58 143.11 32.10 C 141.70 32.07 140.28 32.04 138.88 32.01 C 139.00 31.33 139.26 29.97 139.39 29.29 Z"
     id="path66" />
  <path
     fill="#936d54"
     d=" M 30.11 31.47 C 31.44 31.17 33.06 31.96 33.55 33.25 C 32.94 35.10 28.01 32.91 30.11 31.47 Z"
     id="path68" />
  <path
     fill="#434661"
     d=" M 138.88 32.01 C 140.28 32.04 141.70 32.07 143.11 32.10 C 143.06 33.35 143.02 34.60 142.99 35.85 C 141.68 35.62 140.38 35.40 139.07 35.19 C 139.02 34.39 138.93 32.80 138.88 32.01 Z"
     id="path70" />
  <path
     fill="#936d54"
     d=" M 35.96 35.92 C 37.00 34.93 38.05 33.93 39.09 32.94 C 39.61 33.19 40.66 33.70 41.18 33.95 C 40.96 34.49 40.52 35.57 40.29 36.11 C 39.98 36.28 39.36 36.60 39.05 36.77 L 38.37 37.13 C 37.77 36.83 36.56 36.22 35.96 35.92 Z"
     id="path72" />
  <path
     fill="#b9955b"
     d=" M 22.57 36.34 C 25.82 34.82 29.38 33.91 32.94 34.89 C 30.04 37.08 28.03 40.11 27.01 43.58 C 24.38 42.22 21.74 40.87 19.10 39.53 C 20.15 38.37 21.10 37.01 22.57 36.34 Z"
     id="path74" />
  <path
     fill="#412c00"
     d=" M 39.05 36.77 C 39.36 36.60 39.98 36.28 40.29 36.11 L 40.92 35.78 C 40.98 38.69 40.99 41.60 40.85 44.51 C 40.20 41.94 39.66 39.34 39.05 36.77 Z"
     id="path76" />
  <path
     fill="#6d4b55"
     d=" M 111.30 36.88 C 113.37 37.25 115.23 38.26 116.70 39.76 L 117.08 39.28 C 117.70 38.49 118.33 37.70 118.96 36.92 C 119.50 39.53 120.10 42.12 120.80 44.70 C 119.86 44.65 118.92 44.54 117.99 44.39 C 117.08 43.61 116.16 42.84 115.24 42.06 C 114.97 42.32 114.43 42.82 114.16 43.08 C 113.06 42.78 111.96 42.47 110.86 42.14 C 110.99 40.39 111.13 38.63 111.30 36.88 Z"
     id="path80" />
  <path
     fill="#434661"
     d=" M 37.94 45.82 C 38.12 43.17 38.27 40.53 38.37 37.87 C 38.59 41.89 39.45 45.86 41.14 49.52 C 41.75 48.64 42.38 47.78 43.04 46.94 C 44.20 45.06 46.74 45.73 48.60 45.47 C 47.86 44.64 47.13 43.81 46.40 42.98 C 47.18 42.86 47.96 42.74 48.73 42.61 C 49.41 43.61 50.08 44.61 50.75 45.61 C 51.24 43.80 51.72 41.98 52.21 40.16 C 53.23 40.77 54.25 41.38 55.27 41.98 C 54.90 43.62 54.55 45.26 54.24 46.92 C 52.52 47.73 50.80 48.54 49.04 49.29 C 48.05 48.80 47.06 48.31 46.06 47.82 C 44.96 48.22 43.86 48.62 42.75 49.01 C 42.67 50.91 42.60 52.81 42.55 54.72 C 41.70 54.07 40.84 53.43 39.99 52.79 C 38.69 53.13 37.39 53.50 36.09 53.88 C 36.14 52.59 36.18 51.31 36.20 50.03 C 34.21 49.71 32.23 49.31 30.27 48.84 C 30.49 44.54 33.88 41.83 37.03 39.43 C 37.00 41.58 36.96 43.72 36.93 45.86 L 37.94 45.82 Z"
     id="path82"
     style="fill:#412c00;fill-opacity:1" />
  <path
     fill="#412c00"
     d=" M 62.41 38.53 C 64.04 43.53 63.05 48.80 62.70 53.91 C 62.36 53.84 61.68 53.72 61.35 53.66 C 62.13 48.65 62.10 43.58 62.41 38.53 Z"
     id="path84" />
  <path
     fill="#7b98af"
     d=" M 143.44 39.33 C 144.29 41.59 145.17 43.84 145.98 46.11 L 145.32 46.05 C 143.61 45.06 142.01 43.89 140.40 42.75 C 141.44 41.63 142.45 40.49 143.44 39.33 Z"
     id="path90" />
  <path
     fill="#936d54"
     d=" M 107.13 44.97 C 108.37 44.03 109.62 43.09 110.86 42.14 C 111.96 42.47 113.06 42.78 114.16 43.08 C 112.62 44.66 111.17 46.33 109.75 48.02 C 109.49 47.85 108.97 47.50 108.71 47.33 C 108.31 46.74 107.52 45.56 107.13 44.97 Z"
     id="path92" />
  <path
     fill="#412c00"
     d=" M 115.24 42.06 C 116.16 42.84 117.08 43.61 117.99 44.39 L 118.18 45.07 C 117.18 44.83 115.78 44.23 114.96 45.17 C 114.79 46.68 116.89 46.83 117.96 47.05 C 117.78 47.43 117.43 48.20 117.26 48.59 C 116.75 48.69 115.75 48.90 115.24 49.00 L 114.03 49.17 C 114.93 46.70 111.33 46.42 111.12 48.76 L 110.39 48.43 L 109.75 48.02 C 111.17 46.33 112.62 44.66 114.16 43.08 C 114.43 42.82 114.97 42.32 115.24 42.06 Z"
     id="path94" />
  <path
     fill="#6d4b55"
     d=" M 127.49 42.64 C 127.87 42.38 128.63 41.87 129.01 41.62 C 129.08 43.78 129.01 45.98 128.31 48.05 C 128.95 48.09 130.21 48.16 130.85 48.20 C 131.35 49.54 131.92 50.86 132.49 52.17 C 133.02 50.65 133.54 49.12 134.04 47.59 C 135.66 48.63 137.06 50.16 138.95 50.71 C 140.85 51.15 142.04 49.16 143.52 48.37 L 143.10 49.27 C 141.68 51.99 140.70 54.92 140.35 57.98 C 141.80 57.68 143.33 57.57 144.68 56.92 C 145.78 55.49 146.52 53.82 147.49 52.31 C 147.91 52.18 148.73 51.91 149.14 51.78 C 149.00 53.79 148.62 55.78 148.09 57.73 C 149.12 58.22 150.15 58.73 151.18 59.25 C 142.14 65.28 131.87 69.12 122.45 74.47 C 120.76 75.73 119.21 77.18 117.46 78.37 C 117.28 76.56 117.09 74.76 116.95 72.95 L 117.45 72.52 C 118.66 71.59 119.86 70.65 121.05 69.71 C 121.73 69.17 122.42 68.62 123.11 68.08 C 121.81 67.23 120.51 66.38 119.21 65.52 C 119.58 65.17 120.31 64.46 120.68 64.10 C 119.75 63.70 118.81 63.30 117.88 62.90 C 118.19 62.34 118.83 61.24 119.14 60.68 C 121.19 62.41 123.19 64.19 125.08 66.09 L 125.00 66.97 C 124.96 67.50 124.87 68.56 124.82 69.09 C 126.94 68.12 129.14 67.04 130.32 64.91 C 129.89 62.23 129.18 59.62 128.67 56.96 C 128.57 56.44 128.47 55.92 128.38 55.39 C 129.23 53.71 130.04 52.00 130.81 50.28 C 128.39 49.63 125.86 49.58 123.44 50.28 C 124.23 51.73 125.02 53.17 125.82 54.62 C 124.26 54.14 122.69 53.67 121.13 53.21 C 122.08 50.30 122.91 47.26 124.85 44.82 C 125.70 44.06 126.58 43.33 127.49 42.64 Z"
     id="path96" />
  <path
     fill="#434661"
     d=" M 114.96 45.17 C 115.78 44.23 117.18 44.83 118.18 45.07 C 118.12 45.57 118.01 46.55 117.96 47.05 C 116.89 46.83 114.79 46.68 114.96 45.17 Z"
     id="path98" />
  <path
     fill="#000000"
     d=" M 104.72 45.92 C 106.07 46.32 107.45 46.69 108.71 47.33 C 108.97 47.50 109.49 47.85 109.75 48.02 L 110.39 48.43 C 110.02 49.12 109.27 50.51 108.90 51.21 C 108.53 52.58 108.24 53.99 107.95 55.38 C 107.52 55.54 106.67 55.84 106.25 56.00 C 105.76 55.61 104.79 54.84 104.30 54.45 L 104.69 53.50 C 105.28 52.10 105.89 50.70 106.50 49.31 C 106.23 48.80 105.69 47.79 105.41 47.29 C 105.24 46.95 104.90 46.26 104.72 45.92 Z"
     id="path104" />
  <path
     fill="#412c00"
     d=" M 130.85 48.20 C 130.76 46.07 133.11 46.53 134.52 46.08 C 134.40 46.45 134.16 47.21 134.04 47.59 C 133.54 49.12 133.02 50.65 132.49 52.17 C 131.92 50.86 131.35 49.54 130.85 48.20 Z"
     id="path106" />
  <path
     fill="#936d54"
     d=" M 145.32 46.05 L 145.98 46.11 C 147.42 46.24 148.46 48.97 146.66 49.37 C 145.03 49.52 144.07 47.08 145.32 46.05 Z"
     id="path108" />
  <path
     fill="#6d4b55"
     d=" M 42.75 49.01 C 43.86 48.62 44.96 48.22 46.06 47.82 C 47.06 48.31 48.05 48.80 49.04 49.29 C 48.99 54.90 48.84 60.51 49.27 66.11 C 48.92 71.92 47.47 77.58 46.45 83.29 C 44.66 82.69 42.84 82.20 41.03 81.70 C 40.99 81.15 40.93 80.05 40.90 79.50 C 41.42 79.56 42.46 79.69 42.98 79.75 C 43.02 75.38 43.05 71.00 42.38 66.67 C 41.12 70.55 41.71 74.70 40.86 78.66 C 40.59 76.75 40.28 74.84 40.10 72.93 C 39.95 67.92 40.04 62.90 40.02 57.89 C 40.88 59.18 43.41 58.85 43.05 57.01 C 42.63 55.48 40.68 56.18 40.02 57.11 C 40.01 55.67 40.00 54.23 39.99 52.79 C 40.84 53.43 41.70 54.07 42.55 54.72 C 42.60 52.81 42.67 50.91 42.75 49.01 Z"
     id="path110" />
  <path
     fill="#6d4b55"
     d=" M 111.12 48.76 C 111.33 46.42 114.93 46.70 114.03 49.17 C 113.30 49.06 111.84 48.86 111.12 48.76 Z"
     id="path114" />
  <path
     fill="#936d54"
     d=" M 102.15 50.29 C 102.20 48.56 104.34 48.26 105.41 47.29 C 105.69 47.79 106.23 48.80 106.50 49.31 C 105.89 50.70 105.28 52.10 104.69 53.50 C 103.83 52.49 101.49 51.96 102.15 50.29 Z"
     id="path118" />
  <path
     fill="#434661"
     d=" M 56.91 49.69 C 57.51 49.56 58.71 49.28 59.32 49.14 C 60.04 53.07 60.16 57.08 59.58 61.04 C 58.27 60.01 56.97 58.97 55.69 57.91 C 56.21 55.19 56.54 52.44 56.91 49.69 Z"
     id="path120" />
  <path
     fill="#7b98af"
     d=" M 110.39 48.43 L 111.12 48.76 C 111.84 48.86 113.30 49.06 114.03 49.17 L 115.24 49.00 C 113.80 50.61 112.43 52.27 111.05 53.93 C 110.33 53.02 109.61 52.12 108.90 51.21 C 109.27 50.51 110.02 49.12 110.39 48.43 Z"
     id="path122" />
  <path
     fill="#434661"
     d=" M 115.24 49.00 C 115.75 48.90 116.75 48.69 117.26 48.59 L 116.85 49.43 C 115.89 51.22 114.78 52.92 113.65 54.61 C 114.45 55.49 115.25 56.37 116.03 57.27 C 113.34 56.65 110.63 56.06 107.95 55.38 C 108.24 53.99 108.53 52.58 108.90 51.21 C 109.61 52.12 110.33 53.02 111.05 53.93 C 112.43 52.27 113.80 50.61 115.24 49.00 Z"
     id="path124" />
  <path
     fill="#b9955b"
     d=" M 123.44 50.28 C 125.86 49.58 128.39 49.63 130.81 50.28 C 130.04 52.00 129.23 53.71 128.38 55.39 C 127.74 55.20 126.46 54.81 125.82 54.62 C 125.02 53.17 124.23 51.73 123.44 50.28 Z"
     id="path126" />
  <path
     fill="#936d54"
     d=" M 113.65 54.61 C 114.78 52.92 115.89 51.22 116.85 49.43 C 118.23 50.25 119.61 51.06 120.98 51.88 C 120.48 53.47 119.98 55.06 119.49 56.65 C 120.08 57.20 120.67 57.75 121.27 58.30 C 121.67 57.92 122.46 57.16 122.86 56.78 C 124.10 57.21 125.33 57.65 126.57 58.09 C 125.84 60.71 125.28 63.38 125.08 66.09 C 123.19 64.19 121.19 62.41 119.14 60.68 C 118.88 60.45 118.35 59.99 118.09 59.76 C 117.39 58.94 116.72 58.09 116.03 57.27 C 115.25 56.37 114.45 55.49 113.65 54.61 Z"
     id="path128" />
  <path
     fill="#412c00"
     d=" M 143.10 49.27 C 144.63 50.19 146.11 51.18 147.49 52.31 C 146.52 53.82 145.78 55.49 144.68 56.92 C 143.33 57.57 141.80 57.68 140.35 57.98 C 140.70 54.92 141.68 51.99 143.10 49.27 Z"
     id="path130" />
  <path
     fill="#412c00"
     d=" M 44.85 54.87 C 44.64 52.98 46.22 51.68 47.49 50.57 C 47.78 53.42 47.91 56.28 47.94 59.14 C 46.86 57.77 45.56 56.49 44.85 54.87 Z"
     id="path132" />
  <path
     fill="#412c00"
     d=" M 95.84 56.88 C 97.16 55.12 98.45 53.34 99.81 51.62 C 101.33 52.52 102.91 53.35 104.30 54.45 C 104.79 54.84 105.76 55.61 106.25 56.00 C 106.67 55.84 107.52 55.54 107.95 55.38 C 110.63 56.06 113.34 56.65 116.03 57.27 C 116.72 58.09 117.39 58.94 118.09 59.76 C 116.10 59.32 114.10 58.95 112.11 58.57 C 109.38 57.86 106.55 58.04 103.90 58.99 C 105.06 59.93 106.22 60.86 107.40 61.76 C 107.90 62.13 108.91 62.88 109.41 63.25 C 106.12 63.56 102.63 63.30 99.83 61.34 C 98.47 59.89 97.15 58.38 95.84 56.88 Z"
     id="path134" />
  <path
     fill="#412c00"
     d=" M 133.06 54.49 C 134.96 52.88 137.33 52.09 139.76 51.70 C 139.58 52.91 139.41 54.13 139.22 55.34 C 138.27 55.37 137.32 55.43 136.38 55.51 C 135.83 57.32 136.58 59.03 137.67 60.45 C 135.86 61.23 134.07 62.07 132.31 62.96 C 132.46 62.48 132.75 61.52 132.90 61.04 C 132.16 60.95 130.70 60.79 129.96 60.70 C 130.08 60.17 130.30 59.11 130.41 58.58 C 131.56 58.59 132.71 58.60 133.86 58.61 C 134.21 57.83 134.56 57.06 134.91 56.29 C 134.45 55.84 133.52 54.94 133.06 54.49 Z"
     id="path136" />
  <path
     fill="#7b98af"
     d=" M 30.37 53.64 C 31.36 54.08 32.35 54.50 33.35 54.91 C 32.19 61.41 30.62 67.84 30.03 74.43 C 28.99 74.37 27.95 74.31 26.91 74.24 C 27.57 67.29 29.34 60.53 30.37 53.64 Z"
     id="path140" />
  <path
     fill="#434661"
     d=" M 33.35 54.91 C 34.22 55.26 35.09 55.60 35.97 55.94 C 35.28 61.77 33.81 67.46 32.90 73.24 L 32.88 74.30 C 31.93 74.37 30.98 74.41 30.03 74.43 C 30.62 67.84 32.19 61.41 33.35 54.91 Z"
     id="path142" />
  <path
     fill="#412c00"
     d=" M 61.12 60.48 C 61.31 58.53 61.66 56.60 62.38 54.77 C 62.88 56.72 63.33 58.69 63.75 60.66 C 62.87 60.60 61.99 60.54 61.12 60.48 Z"
     id="path144" />
  <path
     fill="#434661"
     d=" M 75.97 54.47 C 77.17 55.04 78.21 55.87 79.15 56.81 C 79.97 59.58 80.73 62.38 81.24 65.23 C 81.46 66.55 81.66 67.87 81.86 69.19 C 81.43 69.31 80.56 69.56 80.13 69.69 C 79.16 69.96 78.20 70.24 77.23 70.52 C 76.88 69.34 76.54 68.16 76.21 66.97 C 75.60 64.71 74.99 62.45 74.49 60.16 C 74.57 58.19 74.73 56.11 75.97 54.47 Z"
     id="path146" />
  <path
     fill="#412c00"
     d=" M 122.86 56.78 C 123.52 56.16 124.18 55.55 124.84 54.93 C 126.12 55.60 127.40 56.28 128.67 56.96 C 129.18 59.62 129.89 62.23 130.32 64.91 C 128.51 65.51 126.72 66.16 125.00 66.97 L 125.08 66.09 C 125.28 63.38 125.84 60.71 126.57 58.09 C 125.33 57.65 124.10 57.21 122.86 56.78 Z"
     id="path148" />
  <path
     fill="#412c00"
     d=" M 40.02 57.11 C 40.68 56.18 42.63 55.48 43.05 57.01 C 43.41 58.85 40.88 59.18 40.02 57.89 L 40.02 57.11 Z"
     id="path150" />
  <path
     fill="#b9955b"
     d=" M 92.29 59.37 C 93.45 58.51 94.64 57.69 95.84 56.88 C 97.15 58.38 98.47 59.89 99.83 61.34 C 98.64 61.73 97.45 62.10 96.26 62.48 C 94.97 61.40 93.62 60.40 92.29 59.37 Z"
     id="path152" />
  <path
     fill="#6d4b55"
     d=" M 103.90 58.99 C 106.55 58.04 109.38 57.86 112.11 58.57 C 110.54 59.65 108.97 60.70 107.40 61.76 C 106.22 60.86 105.06 59.93 103.90 58.99 Z"
     id="path154" />
  <path
     fill="#000000"
     d=" M 112.11 58.57 C 114.10 58.95 116.10 59.32 118.09 59.76 C 118.35 59.99 118.88 60.45 119.14 60.68 C 118.83 61.24 118.19 62.34 117.88 62.90 C 117.30 63.92 116.74 64.94 116.18 65.97 C 115.10 65.70 114.01 65.42 112.94 65.11 C 111.73 64.56 110.55 63.94 109.41 63.25 C 108.91 62.88 107.90 62.13 107.40 61.76 C 108.97 60.70 110.54 59.65 112.11 58.57 Z"
     id="path156" />
  <path
     fill="#7b98af"
     d=" M 81.24 65.23 C 84.66 62.97 88.48 61.40 91.81 59.00 L 92.29 59.37 C 93.62 60.40 94.97 61.40 96.26 62.48 C 96.24 62.80 96.18 63.44 96.15 63.76 C 91.80 65.01 87.70 66.92 83.54 68.66 C 83.12 68.79 82.28 69.05 81.86 69.19 C 81.66 67.87 81.46 66.55 81.24 65.23 Z"
     id="path158" />
  <path
     fill="#b9955b"
     d=" M 51.17 59.73 C 52.19 60.48 53.21 61.25 54.23 62.01 C 53.97 62.57 53.45 63.70 53.19 64.26 C 52.07 64.15 50.94 64.04 49.82 63.95 C 50.21 62.52 50.67 61.12 51.17 59.73 Z"
     id="path162" />
  <path
     fill="#6d4b55"
     d=" M 96.26 62.48 C 97.45 62.10 98.64 61.73 99.83 61.34 C 102.63 63.30 106.12 63.56 109.41 63.25 C 110.55 63.94 111.73 64.56 112.94 65.11 C 112.91 65.85 112.83 67.33 112.80 68.07 L 112.78 69.08 L 112.18 68.64 C 109.41 66.60 106.27 65.18 103.16 63.74 C 100.84 65.89 98.43 67.99 95.56 69.36 C 95.77 67.50 95.97 65.63 96.15 63.76 C 96.18 63.44 96.24 62.80 96.26 62.48 Z"
     id="path164" />
  <path
     d=" M 49.82 63.95 C 50.94 64.04 52.07 64.15 53.19 64.26 C 54.07 65.28 54.95 66.29 55.85 67.30 C 55.49 69.16 55.16 71.02 54.74 72.87 C 54.41 73.98 54.07 75.09 53.71 76.19 C 52.74 79.44 51.41 82.59 49.37 85.32 C 48.42 84.61 47.45 83.94 46.45 83.29 C 47.47 77.58 48.92 71.92 49.27 66.11 C 49.40 65.57 49.68 64.49 49.82 63.95 Z"
     id="path168"
     fill="#7b98af" />
  <path
     fill="#412c00"
     d=" M 116.18 65.97 C 116.74 64.94 117.30 63.92 117.88 62.90 C 118.81 63.30 119.75 63.70 120.68 64.10 C 120.31 64.46 119.58 65.17 119.21 65.52 C 120.51 66.38 121.81 67.23 123.11 68.08 C 122.42 68.62 121.73 69.17 121.05 69.71 C 118.37 68.86 115.60 68.31 112.80 68.07 C 112.83 67.33 112.91 65.85 112.94 65.11 C 114.01 65.42 115.10 65.70 116.18 65.97 Z"
     id="path170" />
  <path
     fill="#434661"
     d=" M 83.54 68.66 C 87.70 66.92 91.80 65.01 96.15 63.76 C 95.97 65.63 95.77 67.50 95.56 69.36 C 92.00 71.13 88.45 72.93 84.77 74.41 C 84.38 72.49 83.96 70.57 83.54 68.66 Z"
     id="path172" />
  <path
     fill="#936d54"
     d=" M 125.00 66.97 C 126.72 66.16 128.51 65.51 130.32 64.91 C 129.14 67.04 126.94 68.12 124.82 69.09 C 124.87 68.56 124.96 67.50 125.00 66.97 Z"
     id="path176" />
  <path
     d="m 40.275738,78.895258 c 1.250898,-4.231002 0.382627,-8.665007 2.236899,-12.810533 0.986003,4.626322 0.941852,9.306067 0.882987,13.975127 -0.765255,-0.06411 -2.295765,-0.203003 -3.06102,-0.267109 l -0.05886,-0.897485 z"
     id="path178"
     style="fill:#6d4b55;fill-opacity:1;stroke-width:0.80000001;stroke-miterlimit:4;stroke-dasharray:none"
     inkscape:connector-curvature="0" />
  <path
     fill="#412c00"
     d=" M 44.19 68.43 C 45.26 67.90 46.33 67.38 47.40 66.85 C 47.49 69.30 47.31 71.75 46.96 74.18 C 46.00 72.28 45.09 70.35 44.19 68.43 Z"
     id="path180" />
  <path
     fill="#936d54"
     d=" M 68.96 71.24 C 71.58 70.20 74.04 68.78 76.21 66.97 C 76.54 68.16 76.88 69.34 77.23 70.52 C 76.20 71.87 75.14 73.20 74.09 74.54 C 72.36 74.61 70.65 74.80 68.93 74.96 C 68.94 73.72 68.95 72.48 68.96 71.24 Z"
     id="path182" />
  <path
     fill="#b9955b"
     d=" M 112.80 68.07 C 115.60 68.31 118.37 68.86 121.05 69.71 C 119.86 70.65 118.66 71.59 117.45 72.52 C 115.86 71.41 114.28 70.30 112.78 69.08 L 112.80 68.07 Z"
     id="path184" />
  <path
     fill="#412c00"
     d=" M 77.23 70.52 C 78.20 70.24 79.16 69.96 80.13 69.69 C 80.84 71.40 81.56 73.12 82.27 74.83 C 81.60 74.26 80.93 73.68 80.26 73.11 C 80.12 75.19 79.92 77.26 79.54 79.31 L 79.43 78.39 C 79.22 76.60 79.06 74.81 78.89 73.02 C 78.47 73.75 78.05 74.49 77.64 75.22 C 76.46 74.97 75.28 74.72 74.09 74.54 C 75.14 73.20 76.20 71.87 77.23 70.52 Z"
     id="path186" />
  <path
     fill="#6d4b55"
     d=" M 80.13 69.69 C 80.56 69.56 81.43 69.31 81.86 69.19 C 82.28 69.05 83.12 68.79 83.54 68.66 C 83.96 70.57 84.38 72.49 84.77 74.41 C 84.42 75.43 84.09 76.45 83.82 77.49 C 83.27 81.02 83.19 84.62 82.30 88.10 C 81.92 89.73 81.52 91.36 81.15 92.99 C 80.30 93.01 79.45 93.02 78.61 93.02 C 78.80 90.00 76.82 88.02 74.21 86.89 C 74.81 85.91 75.37 84.91 75.93 83.91 C 77.52 84.60 79.07 85.36 80.64 86.10 C 80.23 83.84 79.83 81.59 79.54 79.31 C 79.92 77.26 80.12 75.19 80.26 73.11 C 80.93 73.68 81.60 74.26 82.27 74.83 C 81.56 73.12 80.84 71.40 80.13 69.69 Z"
     id="path188" />
  <path
     fill="#7b98af"
     d=" M 98.15 76.08 C 102.72 73.40 107.52 71.15 112.18 68.64 L 112.78 69.08 C 114.28 70.30 115.86 71.41 117.45 72.52 L 116.95 72.95 C 112.17 74.88 107.51 77.09 102.93 79.48 C 102.58 79.66 101.88 80.00 101.52 80.17 C 100.40 78.80 99.28 77.44 98.15 76.08 Z"
     id="path190" />
  <path
     fill="#b9955b"
     d=" M 32.90 73.24 C 35.29 73.06 37.69 72.97 40.10 72.93 C 40.28 74.84 40.59 76.75 40.86 78.66 L 40.90 79.50 C 40.93 80.05 40.99 81.15 41.03 81.70 C 42.84 82.20 44.66 82.69 46.45 83.29 C 47.45 83.94 48.42 84.61 49.37 85.32 L 49.30 86.11 C 49.27 86.59 49.20 87.54 49.16 88.02 C 48.11 87.41 47.07 86.81 46.02 86.21 C 43.23 84.68 40.15 83.21 38.63 80.24 C 37.49 80.21 36.35 80.20 35.22 80.22 C 34.40 78.26 33.55 76.31 32.88 74.30 L 32.90 73.24 Z"
     id="path192" />
  <path
     fill="#b9955b"
     d=" M 54.74 72.87 C 56.53 72.86 58.33 72.84 60.12 72.79 C 60.35 74.70 60.39 76.63 60.43 78.55 C 58.17 77.80 55.93 77.03 53.71 76.19 C 54.07 75.09 54.41 73.98 54.74 72.87 Z"
     id="path194" />
  <path
     fill="#434661"
     d=" M 102.93 79.48 C 107.51 77.09 112.17 74.88 116.95 72.95 C 117.09 74.76 117.28 76.56 117.46 78.37 C 112.77 80.51 108.38 83.30 103.46 84.91 C 103.36 83.09 103.15 81.29 102.93 79.48 Z"
     id="path196" />
  <path
     fill="#936d54"
     d=" M 25.96 81.99 C 25.20 79.69 23.60 74.92 26.91 74.24 C 27.95 74.31 28.99 74.37 30.03 74.43 C 30.98 74.41 31.93 74.37 32.88 74.30 C 33.55 76.31 34.40 78.26 35.22 80.22 C 33.73 80.26 32.24 80.36 30.76 80.47 C 30.97 78.86 31.16 77.25 31.32 75.64 C 28.21 80.71 28.19 86.92 26.64 92.53 C 26.28 94.37 25.94 96.20 25.63 98.05 C 27.19 98.02 28.75 97.97 30.31 97.88 C 30.28 98.37 30.23 99.35 30.20 99.84 C 28.24 99.82 26.29 99.80 24.34 99.80 C 24.54 98.60 24.73 97.41 24.93 96.21 C 24.03 96.80 23.13 97.39 22.23 97.98 C 19.98 97.52 17.71 97.24 15.42 97.15 C 15.10 96.47 14.46 95.11 14.14 94.43 C 16.49 94.50 18.81 94.91 21.10 95.43 C 24.14 93.11 26.01 89.00 23.30 85.64 C 22.87 84.31 21.06 83.80 19.92 84.54 C 20.23 83.93 20.85 82.72 21.16 82.11 C 22.76 82.07 24.36 82.03 25.96 81.99 Z"
     id="path198" />
  <path
     fill="#412c00"
     d=" M 26.64 92.53 C 28.19 86.92 28.21 80.71 31.32 75.64 C 31.16 77.25 30.97 78.86 30.76 80.47 C 32.24 80.36 33.73 80.26 35.22 80.22 C 36.35 80.20 37.49 80.21 38.63 80.24 C 40.15 83.21 43.23 84.68 46.02 86.21 C 45.64 89.61 45.04 93.00 43.93 96.25 C 41.58 95.20 39.39 93.83 37.52 92.06 C 38.04 91.67 39.09 90.89 39.61 90.50 C 39.81 92.10 42.59 93.95 43.41 91.84 C 43.44 90.14 41.30 90.25 40.13 90.09 C 37.90 89.31 35.70 88.30 33.95 86.69 C 33.73 84.81 34.58 83.00 34.98 81.19 C 32.74 84.26 30.99 87.63 29.21 90.96 C 28.61 91.99 27.99 93.01 27.37 94.02 C 27.19 93.65 26.82 92.91 26.64 92.53 Z"
     id="path200" />
  <path
     fill="#b9955b"
     d=" M 85.53 82.70 C 90.16 81.36 94.15 78.66 98.15 76.08 C 99.28 77.44 100.40 78.80 101.52 80.17 C 95.78 82.68 90.78 86.57 86.51 91.12 C 92.11 91.40 96.38 87.27 101.55 85.85 C 101.66 86.73 101.90 88.47 102.02 89.35 C 102.10 95.76 101.98 102.18 101.93 108.60 C 102.49 108.91 103.62 109.54 104.18 109.86 C 102.46 110.78 100.73 111.68 99.00 112.58 C 95.00 110.76 91.18 108.57 87.32 106.46 C 88.19 105.25 89.07 104.04 89.93 102.83 C 92.28 103.65 94.61 104.49 96.92 105.40 C 96.78 102.85 96.69 100.29 96.49 97.74 C 96.35 99.59 96.26 101.43 96.16 103.28 L 95.27 103.26 C 95.01 99.99 94.48 96.75 93.76 93.55 C 94.16 92.41 94.54 91.26 94.93 90.11 C 92.58 92.24 89.71 93.57 86.62 94.20 C 88.42 94.89 90.22 95.59 92.02 96.27 L 91.93 97.20 C 89.26 97.94 86.50 98.22 83.76 98.56 C 85.58 99.37 87.40 100.17 89.22 100.99 C 86.59 103.35 83.17 102.23 80.13 101.53 C 79.94 101.22 79.55 100.59 79.35 100.28 C 79.94 100.14 81.13 99.88 81.72 99.75 C 81.56 98.85 81.39 97.94 81.22 97.04 C 81.12 96.59 80.93 95.70 80.84 95.25 C 77.30 94.96 73.75 94.95 70.20 94.84 C 69.81 94.30 69.02 93.24 68.63 92.71 C 69.03 92.62 69.82 92.45 70.22 92.37 C 73.00 92.71 75.79 93.08 78.61 93.02 C 79.45 93.02 80.30 93.01 81.15 92.99 C 81.52 91.36 81.92 89.73 82.30 88.10 C 83.68 87.50 85.05 86.90 86.42 86.30 C 86.13 85.10 85.84 83.89 85.53 82.70 Z"
     id="path202" />
  <path
     fill="#412c00"
     d=" M 61.76 86.54 C 61.50 83.57 61.31 80.46 62.51 77.65 C 62.65 80.55 64.04 84.15 61.76 86.54 Z"
     id="path204" />
  <path
     fill="#b9955b"
     d=" M 68.88 80.15 C 72.35 79.31 75.88 78.75 79.43 78.39 L 79.54 79.31 C 79.83 81.59 80.23 83.84 80.64 86.10 C 79.07 85.36 77.52 84.60 75.93 83.91 C 73.62 84.25 71.47 85.21 69.41 86.29 C 69.24 85.64 68.88 84.33 68.70 83.68 L 68.80 83.01 C 70.66 82.94 72.52 82.89 74.38 82.81 C 72.55 81.91 70.71 81.04 68.88 80.15 Z"
     id="path206" />
  <path
     fill="#412c00"
     d=" M 82.30 88.10 C 83.19 84.62 83.27 81.02 83.82 77.49 C 84.44 79.21 85.03 80.94 85.53 82.70 C 85.84 83.89 86.13 85.10 86.42 86.30 C 85.05 86.90 83.68 87.50 82.30 88.10 Z"
     id="path208" />
  <path
     fill="#6d4b55"
     d=" M 86.51 91.12 C 90.78 86.57 95.78 82.68 101.52 80.17 C 101.88 80.00 102.58 79.66 102.93 79.48 C 103.15 81.29 103.36 83.09 103.46 84.91 C 103.30 86.47 102.95 88.05 102.02 89.35 C 101.90 88.47 101.66 86.73 101.55 85.85 C 96.38 87.27 92.11 91.40 86.51 91.12 Z"
     id="path210" />
  <path
     fill="#000000"
     d=" M 29.21 90.96 C 30.99 87.63 32.74 84.26 34.98 81.19 C 34.58 83.00 33.73 84.81 33.95 86.69 C 35.70 88.30 37.90 89.31 40.13 90.09 L 39.61 90.50 C 39.09 90.89 38.04 91.67 37.52 92.06 C 34.78 91.46 31.99 91.21 29.21 90.96 Z"
     id="path212" />
  <path
     fill="#000000"
     d=" M 53.07 82.50 C 54.82 82.44 56.57 82.38 58.32 82.35 C 57.11 83.10 55.90 83.83 54.65 84.50 C 54.29 84.74 53.58 85.20 53.22 85.44 C 53.18 84.70 53.11 83.23 53.07 82.50 Z"
     id="path214" />
  <path
     fill="#b9955b"
     d=" M 5.12 84.12 C 7.01 83.74 8.89 83.21 10.83 83.17 C 13.98 84.27 16.89 86.28 20.39 86.05 C 21.12 85.95 22.57 85.74 23.30 85.64 C 26.01 89.00 24.14 93.11 21.10 95.43 C 18.81 94.91 16.49 94.50 14.14 94.43 L 13.39 94.40 C 12.24 94.32 11.10 94.23 9.96 94.13 C 10.33 95.50 10.70 96.88 11.11 98.25 L 11.38 99.07 C 9.35 99.67 7.35 100.39 5.53 101.48 C 5.72 96.40 5.74 91.29 5.32 86.22 C 5.27 85.69 5.17 84.64 5.12 84.12 Z"
     id="path216" />
  <path
     fill="#412c00"
     d=" M 66.06 83.13 C 66.75 83.10 68.12 83.04 68.80 83.01 L 68.70 83.68 C 68.18 85.63 67.60 87.56 66.99 89.48 C 66.27 87.45 66.12 85.26 66.06 83.13 Z"
     id="path218" />
  <path
     fill="#412c00"
     d=" M 19.92 84.54 C 21.06 83.80 22.87 84.31 23.30 85.64 C 22.57 85.74 21.12 85.95 20.39 86.05 C 20.27 85.67 20.04 84.92 19.92 84.54 Z"
     id="path220" />
  <path
     fill="#412c00"
     d=" M 69.41 86.29 C 71.47 85.21 73.62 84.25 75.93 83.91 C 75.37 84.91 74.81 85.91 74.21 86.89 C 72.77 87.47 71.27 87.88 69.76 88.25 C 69.67 87.76 69.50 86.78 69.41 86.29 Z"
     id="path222" />
  <path
     fill="#b9955b"
     d=" M 53.22 85.44 C 53.58 85.20 54.29 84.74 54.65 84.50 C 54.95 84.81 55.53 85.42 55.83 85.72 C 55.19 85.84 53.91 86.07 53.27 86.19 L 53.22 85.44 Z"
     id="path224" />
  <path
     fill="#434661"
     d=" M 5.32 86.22 C 5.74 91.29 5.72 96.40 5.53 101.48 C 7.35 100.39 9.35 99.67 11.38 99.07 C 11.70 99.95 12.03 100.83 12.39 101.71 C 13.46 100.23 14.44 98.69 15.42 97.15 C 17.71 97.24 19.98 97.52 22.23 97.98 C 22.06 99.29 21.87 100.61 21.76 101.93 C 21.15 104.94 22.67 107.71 23.73 110.42 C 25.26 114.14 26.45 117.99 28.02 121.69 L 28.75 121.80 C 29.21 121.84 30.13 121.93 30.58 121.97 C 30.57 122.76 30.56 123.55 30.55 124.34 C 33.44 124.56 36.94 125.44 38.58 122.26 L 39.38 122.22 C 39.18 123.45 38.99 124.69 38.80 125.93 C 34.11 125.66 29.38 125.98 25.40 128.73 C 23.93 127.62 22.39 126.62 20.84 125.63 C 20.32 122.48 23.02 121.13 25.26 119.65 C 25.12 118.02 24.33 116.69 22.96 115.80 C 22.53 113.71 22.09 111.62 21.66 109.53 C 19.97 109.51 18.28 109.50 16.59 109.47 C 16.49 108.10 16.40 106.73 16.30 105.36 C 17.17 104.12 18.04 102.88 18.91 101.64 C 16.68 101.83 14.47 102.60 12.23 102.39 C 10.55 101.64 8.71 100.91 6.95 101.93 C 8.21 103.37 9.51 104.78 10.86 106.15 C 8.93 105.66 6.99 105.18 5.05 104.71 C 5.08 100.20 5.18 95.67 4.49 91.20 C 5.04 90.14 5.02 89.16 4.42 88.24 C 2.54 87.24 2.32 90.39 3.68 91.06 L 2.08 90.99 C 2.07 89.77 2.05 88.55 2.02 87.33 C 3.13 86.98 4.23 86.61 5.32 86.22 Z"
     id="path226" />
  <path
     fill="#936d54"
     d=" M 46.02 86.21 C 47.07 86.81 48.11 87.41 49.16 88.02 C 48.98 90.44 48.76 92.86 48.35 95.25 C 47.02 98.83 46.52 102.65 46.75 106.45 C 44.74 106.20 42.78 105.65 40.82 105.13 C 40.24 105.73 39.65 106.33 39.08 106.93 C 38.80 107.23 38.25 107.81 37.97 108.11 C 36.90 107.42 35.83 106.74 34.74 106.09 C 33.84 105.57 32.93 105.08 32.00 104.63 C 32.11 103.98 32.33 102.69 32.44 102.04 C 33.41 102.20 34.38 102.37 35.36 102.54 C 35.68 102.59 36.34 102.71 36.67 102.77 C 38.50 103.20 40.39 103.36 42.26 103.08 C 42.43 102.07 42.59 101.05 42.80 100.04 C 43.13 98.76 43.53 97.51 43.93 96.25 C 45.04 93.00 45.64 89.61 46.02 86.21 Z"
     id="path228" />
  <path
     fill="#412c00"
     d=" M 49.30 86.11 C 50.62 86.12 51.95 86.15 53.27 86.19 C 53.91 86.07 55.19 85.84 55.83 85.72 C 57.21 86.41 58.60 87.08 59.99 87.76 C 57.01 88.27 54.00 88.62 50.98 88.71 C 50.10 90.89 49.20 93.06 48.35 95.25 C 48.76 92.86 48.98 90.44 49.16 88.02 C 49.20 87.54 49.27 86.59 49.30 86.11 Z"
     id="path230" />
  <path
     fill="#000000"
     d=" M 69.76 88.25 C 71.27 87.88 72.77 87.47 74.21 86.89 C 76.82 88.02 78.80 90.00 78.61 93.02 C 75.79 93.08 73.00 92.71 70.22 92.37 C 70.09 90.99 69.97 89.61 69.76 88.25 Z"
     id="path232" />
  <path
     fill="#412c00"
     d=" M 3.68 91.06 C 2.32 90.39 2.54 87.24 4.42 88.24 C 5.02 89.16 5.04 90.14 4.49 91.20 L 3.68 91.06 Z"
     id="path234" />
  <path
     fill="#412c00"
     d=" M 61.39 88.43 C 62.63 87.09 64.67 89.28 63.34 90.48 C 62.08 91.86 60.06 89.64 61.39 88.43 Z"
     id="path236" />
  <path
     fill="#434661"
     d=" M 40.13 90.09 C 41.30 90.25 43.44 90.14 43.41 91.84 C 42.59 93.95 39.81 92.10 39.61 90.50 L 40.13 90.09 Z"
     id="path238" />
  <path
     fill="#412c00"
     d=" M 51.65 92.72 C 53.44 91.16 55.93 90.80 58.11 90.00 C 57.61 91.04 57.12 92.07 56.62 93.11 C 57.60 93.30 58.57 93.50 59.55 93.69 C 59.72 96.63 59.81 99.56 59.80 102.50 C 58.51 102.61 57.21 102.72 55.92 102.84 C 55.99 101.60 56.09 100.37 56.21 99.15 C 56.35 98.21 56.49 97.28 56.64 96.35 C 55.28 96.45 53.92 96.55 52.56 96.65 C 52.33 99.13 52.15 101.62 52.01 104.12 C 50.89 103.63 49.78 103.15 48.66 102.67 C 49.29 99.29 49.43 95.52 51.65 92.72 Z"
     id="path240" />
  <path
     fill="#412c00"
     d=" M 86.62 94.20 C 89.71 93.57 92.58 92.24 94.93 90.11 C 94.54 91.26 94.16 92.41 93.76 93.55 C 93.18 94.45 92.60 95.36 92.02 96.27 C 90.22 95.59 88.42 94.89 86.62 94.20 Z"
     id="path242" />
  <path
     fill="#6d4b55"
     d=" M 27.37 94.02 C 27.99 93.01 28.61 91.99 29.21 90.96 C 31.99 91.21 34.78 91.46 37.52 92.06 C 39.39 93.83 41.58 95.20 43.93 96.25 C 43.53 97.51 43.13 98.76 42.80 100.04 C 40.75 100.93 38.72 101.88 36.67 102.77 C 36.34 102.71 35.68 102.59 35.36 102.54 C 36.63 101.35 37.91 100.16 39.18 98.96 C 36.44 97.36 33.34 97.31 30.31 97.88 C 28.75 97.97 27.19 98.02 25.63 98.05 C 25.94 96.20 26.28 94.37 26.64 92.53 C 26.82 92.91 27.19 93.65 27.37 94.02 Z"
     id="path244" />
  <path
     fill="#ffffff"
     d=" M 58.68 91.45 C 62.44 93.00 66.35 92.23 70.22 92.37 C 69.82 92.45 69.03 92.62 68.63 92.71 C 65.25 94.37 61.67 93.50 58.68 91.45 Z"
     id="path246" />
  <path
     fill="#936d54"
     d=" M 9.96 94.13 C 11.10 94.23 12.24 94.32 13.39 94.40 C 12.61 95.67 11.86 96.96 11.11 98.25 C 10.70 96.88 10.33 95.50 9.96 94.13 Z"
     id="path248" />
  <path
     fill="#412c00"
     d=" M 13.39 94.40 L 14.14 94.43 C 14.46 95.11 15.10 96.47 15.42 97.15 C 14.44 98.69 13.46 100.23 12.39 101.71 C 12.03 100.83 11.70 99.95 11.38 99.07 L 11.11 98.25 C 11.86 96.96 12.61 95.67 13.39 94.40 Z"
     id="path252" />
  <path
     fill="#b9955b"
     d=" M 22.23 97.98 C 23.13 97.39 24.03 96.80 24.93 96.21 C 24.73 97.41 24.54 98.60 24.34 99.80 C 26.29 99.80 28.24 99.82 30.20 99.84 C 29.95 101.32 29.55 102.78 29.13 104.22 L 28.16 104.14 C 27.54 104.11 26.29 104.04 25.67 104.00 C 24.99 104.93 24.31 105.86 23.64 106.80 C 23.08 105.15 22.41 103.55 21.76 101.93 C 21.87 100.61 22.06 99.29 22.23 97.98 Z"
     id="path254" />
  <path
     fill="#936d54"
     d=" M 68.70 97.20 C 72.79 95.93 77.06 96.59 81.22 97.04 C 81.39 97.94 81.56 98.85 81.72 99.75 C 81.13 99.88 79.94 100.14 79.35 100.28 C 79.55 100.59 79.94 101.22 80.13 101.53 C 81.10 103.07 82.11 104.58 83.10 106.11 C 81.78 106.05 80.47 105.97 79.16 105.87 C 78.00 105.46 76.85 105.01 75.70 104.56 C 74.74 104.93 73.78 105.31 72.82 105.70 C 72.03 104.99 71.21 104.33 70.40 103.66 C 68.88 102.42 67.41 101.12 65.97 99.78 C 70.38 98.82 74.92 98.92 79.40 98.63 C 75.90 97.70 72.30 97.38 68.70 97.20 Z"
     id="path256" />
  <path
     fill="#412c00"
     d=" M 30.31 97.88 C 33.34 97.31 36.44 97.36 39.18 98.96 C 37.91 100.16 36.63 101.35 35.36 102.54 C 34.38 102.37 33.41 102.20 32.44 102.04 C 32.33 102.69 32.11 103.98 32.00 104.63 C 31.05 104.46 30.09 104.32 29.13 104.22 C 29.55 102.78 29.95 101.32 30.20 99.84 C 30.23 99.35 30.28 98.37 30.31 97.88 Z"
     id="path258" />
  <path
     fill="#412c00"
     d=" M 83.76 98.56 C 86.50 98.22 89.26 97.94 91.93 97.20 C 91.90 99.28 91.36 101.27 89.93 102.83 C 89.07 104.04 88.19 105.25 87.32 106.46 C 85.92 106.26 84.51 106.18 83.10 106.11 C 82.11 104.58 81.10 103.07 80.13 101.53 C 83.17 102.23 86.59 103.35 89.22 100.99 C 87.40 100.17 85.58 99.37 83.76 98.56 Z"
     id="path260" />
  <path
     fill="#b9955b"
     d=" M 53.60 98.09 C 54.25 98.36 55.56 98.88 56.21 99.15 C 56.09 100.37 55.99 101.60 55.92 102.84 C 57.21 102.72 58.51 102.61 59.80 102.50 C 61.79 103.71 63.97 104.85 66.39 104.54 C 67.73 104.26 69.07 103.97 70.40 103.66 C 71.21 104.33 72.03 104.99 72.82 105.70 C 73.59 106.63 74.31 107.61 75.03 108.58 C 74.21 108.76 72.58 109.12 71.76 109.29 C 71.45 109.12 70.83 108.77 70.52 108.60 C 68.96 107.71 67.19 107.46 65.44 107.30 C 65.46 108.68 65.48 110.06 65.49 111.45 C 64.12 110.93 62.76 110.39 61.39 109.88 C 60.73 109.68 59.41 109.26 58.76 109.05 C 58.28 109.19 57.34 109.46 56.86 109.60 C 55.52 110.04 54.18 110.46 52.82 110.84 C 51.35 110.23 50.00 108.60 48.30 108.99 C 47.67 109.50 46.43 110.53 45.80 111.04 C 44.94 111.08 44.08 111.13 43.21 111.18 C 42.97 110.16 42.74 109.14 42.51 108.13 C 41.36 107.73 40.22 107.33 39.08 106.93 C 39.65 106.33 40.24 105.73 40.82 105.13 C 42.78 105.65 44.74 106.20 46.75 106.45 C 48.68 106.26 50.60 106.02 52.53 105.78 C 52.83 103.21 53.18 100.65 53.60 98.09 Z"
     id="path262" />
  <path
     fill="#412c00"
     d=" M 42.80 100.04 C 42.59 101.05 42.43 102.07 42.26 103.08 C 40.39 103.36 38.50 103.20 36.67 102.77 C 38.72 101.88 40.75 100.93 42.80 100.04 Z"
     id="path264" />
  <path
     fill="#412c00"
     d=" M 62.71 100.51 C 63.79 100.26 64.88 100.01 65.97 99.78 C 67.41 101.12 68.88 102.42 70.40 103.66 C 69.07 103.97 67.73 104.26 66.39 104.54 C 65.16 103.19 63.93 101.85 62.71 100.51 Z"
     id="path266" />
  <path
     fill="#b9955b"
     d=" M 6.95 101.93 C 8.71 100.91 10.55 101.64 12.23 102.39 C 14.47 102.60 16.68 101.83 18.91 101.64 C 18.04 102.88 17.17 104.12 16.30 105.36 C 14.49 105.61 12.67 105.87 10.86 106.15 C 9.51 104.78 8.21 103.37 6.95 101.93 Z"
     id="path268" />
  <path
     fill="#412c00"
     d=" M 25.67 104.00 C 26.29 104.04 27.54 104.11 28.16 104.14 C 28.19 104.71 28.26 105.84 28.29 106.41 C 26.87 106.92 25.45 107.44 24.03 107.96 C 23.93 107.67 23.74 107.09 23.64 106.80 C 24.31 105.86 24.99 104.93 25.67 104.00 Z"
     id="path272" />
  <path
     fill="#000000"
     d=" M 28.16 104.14 L 29.13 104.22 C 30.09 104.32 31.05 104.46 32.00 104.63 C 32.93 105.08 33.84 105.57 34.74 106.09 C 34.17 107.62 33.48 109.13 33.26 110.76 C 33.99 111.93 34.92 112.95 35.80 114.00 C 35.34 114.23 34.41 114.70 33.95 114.93 C 32.31 115.73 30.67 116.53 29.03 117.33 C 28.73 116.82 28.12 115.79 27.81 115.28 C 28.85 113.59 30.16 111.96 30.59 109.97 C 29.95 108.71 29.09 107.57 28.29 106.41 C 28.26 105.84 28.19 104.71 28.16 104.14 Z"
     id="path274" />
  <path
     fill="#412c00"
     d=" M 72.82 105.70 C 73.78 105.31 74.74 104.93 75.70 104.56 C 76.85 105.01 78.00 105.46 79.16 105.87 C 78.90 106.91 78.63 107.95 78.37 108.99 C 79.43 109.45 80.49 109.90 81.55 110.37 C 79.42 111.92 77.52 110.39 76.00 108.83 C 76.00 110.06 76.00 111.30 76.00 112.53 C 75.32 112.98 73.94 113.88 73.26 114.32 C 72.66 114.10 71.46 113.64 70.86 113.41 C 72.23 112.70 73.55 111.88 74.86 111.08 C 73.83 110.48 72.80 109.89 71.76 109.29 C 72.58 109.12 74.21 108.76 75.03 108.58 C 74.31 107.61 73.59 106.63 72.82 105.70 Z"
     id="path276" />
  <path
     fill="#b9955b"
     d=" M 5.05 104.71 C 6.99 105.18 8.93 105.66 10.86 106.15 C 10.69 107.52 10.50 108.89 10.30 110.26 C 9.78 109.67 9.25 109.10 8.72 108.53 C 7.50 109.45 6.27 110.36 5.04 111.27 C 4.96 110.83 4.80 109.95 4.72 109.51 C 4.81 107.91 4.92 106.31 5.05 104.71 Z"
     id="path278" />
  <path
     fill="#936d54"
     d=" M 10.86 106.15 C 12.67 105.87 14.49 105.61 16.30 105.36 C 16.40 106.73 16.49 108.10 16.59 109.47 C 15.99 110.83 15.42 112.21 14.95 113.62 L 14.62 114.59 C 13.36 115.09 12.11 115.59 10.88 116.14 C 11.17 115.01 11.42 113.87 11.62 112.72 C 12.28 113.60 14.72 113.83 14.13 112.16 C 13.34 111.24 12.48 111.20 11.55 112.05 C 11.16 111.43 10.74 110.84 10.30 110.26 C 10.50 108.89 10.69 107.52 10.86 106.15 Z"
     id="path280" />
  <path
     fill="#6d4b55"
     d=" M 34.74 106.09 C 35.83 106.74 36.90 107.42 37.97 108.11 C 37.32 108.80 36.68 109.51 36.04 110.21 C 37.28 110.74 38.53 111.26 39.75 111.85 C 38.44 112.58 37.13 113.31 35.80 114.00 C 34.92 112.95 33.99 111.93 33.26 110.76 C 33.48 109.13 34.17 107.62 34.74 106.09 Z"
     id="path282" />
  <path
     fill="#6d4b55"
     d=" M 79.16 105.87 C 80.47 105.97 81.78 106.05 83.10 106.11 C 84.51 106.18 85.92 106.26 87.32 106.46 C 91.18 108.57 95.00 110.76 99.00 112.58 C 100.73 111.68 102.46 110.78 104.18 109.86 C 104.09 111.16 104.02 112.46 103.95 113.76 C 102.48 114.75 101.01 115.74 99.61 116.83 C 94.44 114.19 89.18 111.71 84.03 109.03 C 83.20 109.48 82.37 109.93 81.55 110.37 C 80.49 109.90 79.43 109.45 78.37 108.99 C 78.63 107.95 78.90 106.91 79.16 105.87 Z"
     id="path284" />
  <path
     fill="#936d54"
     d=" M 24.03 107.96 C 25.45 107.44 26.87 106.92 28.29 106.41 C 29.09 107.57 29.95 108.71 30.59 109.97 C 30.16 111.96 28.85 113.59 27.81 115.28 C 26.39 112.93 24.98 110.55 24.03 107.96 Z"
     id="path286" />
  <path
     fill="#412c00"
     d=" M 39.08 106.93 C 40.22 107.33 41.36 107.73 42.51 108.13 C 42.74 109.14 42.97 110.16 43.21 111.18 C 43.50 112.37 43.79 113.57 44.08 114.76 C 43.59 114.63 42.62 114.37 42.13 114.24 C 41.38 113.41 40.59 112.60 39.75 111.85 C 38.53 111.26 37.28 110.74 36.04 110.21 C 36.68 109.51 37.32 108.80 37.97 108.11 C 38.25 107.81 38.80 107.23 39.08 106.93 Z"
     id="path288" />
  <path
     fill="#412c00"
     d=" M 65.44 107.30 C 67.19 107.46 68.96 107.71 70.52 108.60 C 70.24 110.06 69.96 111.53 69.68 112.99 L 69.03 112.76 C 67.85 112.33 66.67 111.89 65.49 111.45 C 65.48 110.06 65.46 108.68 65.44 107.30 Z"
     id="path290" />
  <path
     fill="#434661"
     d=" M 8.72 108.53 C 9.25 109.10 9.78 109.67 10.30 110.26 C 10.74 110.84 11.16 111.43 11.55 112.05 L 11.62 112.72 C 11.42 113.87 11.17 115.01 10.88 116.14 C 9.24 119.01 4.76 118.34 2.34 116.67 C 0.09 115.58 1.32 112.65 1.00 110.69 L 1.67 111.32 C 2.52 112.98 4.76 111.62 4.02 110.04 L 3.97 108.78 L 4.72 109.51 C 4.80 109.95 4.96 110.83 5.04 111.27 C 6.27 110.36 7.50 109.45 8.72 108.53 Z"
     id="path292" />
  <path
     fill="#936d54"
     d=" M 16.59 109.47 C 18.28 109.50 19.97 109.51 21.66 109.53 C 22.09 111.62 22.53 113.71 22.96 115.80 L 23.14 116.71 C 22.48 116.78 21.15 116.94 20.49 117.01 L 20.18 116.13 C 19.47 113.68 18.14 111.48 16.59 109.47 Z"
     id="path294" />
  <path
     fill="#412c00"
     d=" M 45.80 111.04 C 46.43 110.53 47.67 109.50 48.30 108.99 C 50.00 108.60 51.35 110.23 52.82 110.84 C 53.87 111.42 54.96 111.94 56.03 112.48 C 56.30 111.52 56.57 110.56 56.86 109.60 C 57.34 109.46 58.28 109.19 58.76 109.05 C 59.41 109.26 60.73 109.68 61.39 109.88 C 61.22 110.43 60.89 111.52 60.73 112.07 C 58.35 112.85 56.19 114.16 54.43 115.95 C 56.72 116.49 59.02 116.99 61.29 117.60 C 58.98 117.66 56.68 117.80 54.37 117.89 L 53.96 117.18 C 52.91 113.28 48.78 112.80 45.80 111.04 Z"
     id="path296" />
  <path
     fill="#6d4b55"
     d=" M 70.52 108.60 C 70.83 108.77 71.45 109.12 71.76 109.29 C 72.80 109.89 73.83 110.48 74.86 111.08 C 73.55 111.88 72.23 112.70 70.86 113.41 C 70.57 113.31 69.97 113.10 69.68 112.99 C 69.96 111.53 70.24 110.06 70.52 108.60 Z"
     id="path300" />
  <path
     fill="#000000"
     d=" M 2.04 110.39 C 2.53 110.30 3.52 110.13 4.02 110.04 C 4.76 111.62 2.52 112.98 1.67 111.32 L 2.04 110.39 Z"
     id="path302" />
  <path
     fill="#412c00"
     d=" M 14.95 113.62 C 15.42 112.21 15.99 110.83 16.59 109.47 C 18.14 111.48 19.47 113.68 20.18 116.13 C 18.58 115.00 16.91 113.96 14.95 113.62 Z"
     id="path304" />
  <path
     fill="#6d4b55"
     d=" M 61.39 109.88 C 62.76 110.39 64.12 110.93 65.49 111.45 C 66.67 111.89 67.85 112.33 69.03 112.76 C 67.89 113.48 66.75 114.21 65.62 114.94 C 66.53 115.88 67.45 116.83 68.37 117.77 C 67.65 118.07 66.94 118.38 66.23 118.69 C 67.12 119.18 68.00 119.68 68.89 120.18 C 66.38 119.23 63.89 118.24 61.29 117.60 C 59.02 116.99 56.72 116.49 54.43 115.95 C 56.19 114.16 58.35 112.85 60.73 112.07 C 60.89 111.52 61.22 110.43 61.39 109.88 Z"
     id="path306" />
  <path
     fill="#ffffff"
     d=" M 11.55 112.05 C 12.48 111.20 13.34 111.24 14.13 112.16 C 14.72 113.83 12.28 113.60 11.62 112.72 L 11.55 112.05 Z"
     id="path308"
     style="fill:#936d54;fill-opacity:1" />
  <path
     fill="#6d4b55"
     d=" M 43.21 111.18 C 44.08 111.13 44.94 111.08 45.80 111.04 C 48.78 112.80 52.91 113.28 53.96 117.18 C 52.83 116.69 51.69 116.22 50.53 115.79 C 47.66 115.35 44.76 115.70 41.90 115.98 C 41.96 115.55 42.07 114.68 42.13 114.24 C 42.62 114.37 43.59 114.63 44.08 114.76 C 43.79 113.57 43.50 112.37 43.21 111.18 Z"
     id="path310" />
  <path
     fill="#b9955b"
     d=" M 39.75 111.85 C 40.59 112.60 41.38 113.41 42.13 114.24 C 42.07 114.68 41.96 115.55 41.90 115.98 C 41.33 116.64 40.75 117.30 40.16 117.95 C 42.67 117.92 45.19 117.96 47.70 117.99 C 49.93 118.02 52.15 117.97 54.37 117.89 C 56.68 117.80 58.98 117.66 61.29 117.60 C 63.89 118.24 66.38 119.23 68.89 120.18 C 68.00 119.68 67.12 119.18 66.23 118.69 C 66.94 118.38 67.65 118.07 68.37 117.77 C 67.45 116.83 66.53 115.88 65.62 114.94 C 66.75 114.21 67.89 113.48 69.03 112.76 L 69.68 112.99 C 69.97 113.10 70.57 113.31 70.86 113.41 C 71.46 113.64 72.66 114.10 73.26 114.32 C 76.88 115.87 80.43 117.60 83.92 119.43 C 83.90 119.82 83.85 120.60 83.83 120.98 C 78.85 122.81 73.54 122.12 68.38 121.86 C 63.70 121.58 59.02 121.45 54.35 120.95 C 57.26 119.06 60.86 119.69 64.14 119.47 C 60.46 119.30 56.49 118.32 53.02 120.01 C 49.71 121.62 45.98 121.82 42.38 122.10 C 41.38 122.13 40.38 122.17 39.38 122.22 L 38.58 122.26 C 35.91 122.22 33.24 122.13 30.58 121.97 C 30.13 121.93 29.21 121.84 28.75 121.80 C 29.82 120.62 30.90 119.46 32.00 118.32 C 31.67 117.87 31.35 117.43 31.02 116.98 C 32.62 116.42 34.23 115.87 35.84 115.33 C 35.37 115.23 34.42 115.03 33.95 114.93 C 34.41 114.70 35.34 114.23 35.80 114.00 C 37.13 113.31 38.44 112.58 39.75 111.85 Z"
     id="path312" />
  <path
     fill="#412c00"
     d=" M 62.18 112.30 C 63.55 111.18 64.97 113.57 63.55 114.42 C 62.18 115.55 60.75 113.15 62.18 112.30 Z"
     id="path314" />
  <path
     fill="#412c00"
     d=" M 41.90 115.98 C 44.76 115.70 47.66 115.35 50.53 115.79 C 49.59 116.53 48.65 117.26 47.70 117.99 C 45.19 117.96 42.67 117.92 40.16 117.95 C 40.75 117.30 41.33 116.64 41.90 115.98 Z"
     id="path316" />
  <path
     fill="#6d4b55"
     d=" M 53.02 120.01 C 56.49 118.32 60.46 119.30 64.14 119.47 C 60.86 119.69 57.26 119.06 54.35 120.95 C 59.02 121.45 63.70 121.58 68.38 121.86 C 59.77 123.27 51.04 122.09 42.38 122.10 C 45.98 121.82 49.71 121.62 53.02 120.01 Z"
     id="path320" />
  <path
     fill="#412c00"
     d=" M 68.38 121.86 C 73.54 122.12 78.85 122.81 83.83 120.98 C 83.84 122.19 83.86 123.41 83.89 124.62 C 81.41 125.99 78.90 127.64 75.99 127.80 C 73.85 127.65 72.13 126.02 69.99 125.86 C 64.77 125.64 59.53 126.08 54.30 125.79 C 51.31 125.00 48.34 124.12 45.34 123.36 C 45.51 124.23 45.68 125.10 45.85 125.97 C 43.50 125.87 41.15 125.87 38.80 125.93 C 38.99 124.69 39.18 123.45 39.38 122.22 C 40.38 122.17 41.38 122.13 42.38 122.10 C 51.04 122.09 59.77 123.27 68.38 121.86 Z"
     id="path322" />
  <path
     fill="#412c00"
     d=" M 30.58 121.97 C 33.24 122.13 35.91 122.22 38.58 122.26 C 36.94 125.44 33.44 124.56 30.55 124.34 C 30.56 123.55 30.57 122.76 30.58 121.97 Z"
     id="path324" />
  <path
     fill="#434661"
     d=" M 45.34 123.36 C 48.34 124.12 51.31 125.00 54.30 125.79 C 51.49 126.02 48.67 126.05 45.85 125.97 C 45.68 125.10 45.51 124.23 45.34 123.36 Z"
     id="path326" />
</svg>
