<svg id="ninjas.digital" xmlns="http://www.w3.org/2000/svg" width="1800" height="1800" viewBox="0 0 1800 1800"><path fill-rule="evenodd" clip-rule="evenodd" fill="#E4E5E6" d="M1599.9 1512.5h-1310.7c1.7-6.5 3.4-12.6 5-18.8l19.1-70.6c5.6-20.6 10.9-41.3 17.1-61.7 4.3-14.3 8.8-28.6 14.9-42.1 4.6-10.3 11.4-19.8 17.8-29.3 13.4-20.1 30.4-37 48.1-53.9-6.3-9.8-12.6-19.4-18.8-29.1l-59.3-92.8-57.7-89.8c-18.2-28.3-36.3-56.6-54.4-85-7.1-11.1-14-22.3-21-33.4h6.7c25 .3 49.9.6 74.9 1 11.1.2 22.3.7 33.4 1l40.5 1c11.3.3 22.6.6 33.9 1 6.7.3 13.3.9 21.5 1.5-2-2.2-2.9-3.3-4-4.4-15.6-15.3-28.7-32.6-38.3-52.2-9.4-19.1-15.6-39.3-18.7-60.5-2.6-17.2-3.5-34.5-2.5-51.7 1.1-18 8.1-34.3 18.5-49.1 9.9-14.1 22.1-25.7 35.4-36.5 22-17.8 46.8-31.1 72.3-42.8 28.5-13.1 58-23.6 88-32.8 1.1-.4 1.9-2.1 2.8-3.2.2-.2 0-.6 0-1 .3-57.3.8-114.6.9-171.9.1-21.6-.8-43.3-.8-64.9 0-11.6 2.3-22.9 8.3-32.9 6.5-10.9 17.4-16.1 29.3-17.7 12.7-1.7 25.7-2.6 38.6-2 23.6 1.1 47.1 3.7 70.3 8.6l56.6 12.2c18.9 4 37.8 7.9 56.8 11.5 13.1 2.5 26.3 4.9 39.5 6.8 10.4 1.5 21 2.3 31.5 3.1 16.4 1.2 32.8 2.3 49.3 2.9 16.5.7 33.1 1.1 49.7.9 12.9-.1 25.8-.7 38.6-2 25.4-2.4 50.9-3.7 76.4-2.7 27.1 1.1 52.6 8.3 76 22.7 14.4 8.9 19.3 22.1 20.8 37.5 1.6 16.3 2.8 32.7 4 49 .5 6 .9 12 1 18.1.4 30.4.7 60.7 1 91.1 0 1.2.1 2.3 0 3.5-.8 7.6-.7 7.3 6.6 9 15.5 3.6 31 7.2 46.2 11.7 18.8 5.6 37.4 11.6 55.8 18.5 20.1 7.5 39.2 17.1 57.4 28.5 13.4 8.4 25.8 18.1 36.6 29.7 14.8 16 25.1 34.5 28.3 56.1 3.7 25.1-.7 49.2-10.7 72.5-7.7 17.8-18.3 33.6-31 48.2-19.3 22.3-41.5 41-66.2 56.8-15.6 10-31.7 19.2-48 27.9-14 7.5-28.7 13.9-43 20.8-.8.4-1.6.9-2.3 2.2 7.1 0 14.3-.2 21.4 0 12.5.4 25.1 1.1 37.6 1.7 1.5.1 3 .1 4.4.1 22.5.3 45 .6 67.4 1 13.6.2 27.2.6 40.8 1 14.4.3 28.8.6 43.3 1l33.4 1c14 .4 28 .6 41.9 1 6.1.2 12.3.9 19 1.4-2.4 3-4.6 5.9-7 8.7-10.6 12.3-21.3 24.5-31.9 36.9-10.1 11.8-19.9 23.9-30 35.8-8.4 9.9-17 19.6-25.5 29.5-9 10.5-17.8 21.1-26.7 31.5-8.1 9.5-16.3 18.9-24.4 28.5-10.6 12.5-21.1 25-31.8 37.5-6.3 7.4-12.8 14.7-19.1 22.2l-26.4 31.2-18.7 21.8-26.7 31.6c-6.4 7.5-13 15-19.5 22.5-4.8 5.5-9.5 11.1-14 17.2 2.2-1.3 4.4-2.6 6.5-4 24.8-17.1 49.6-34.2 74.3-51.4 31.5-21.9 63-43.7 94.5-65.7 3.3-2.3 5.2-2.3 8.2.6 10.8 10.2 22.6 19.4 32.7 30.2 13.1 14.1 24.9 29.4 37 44.4 14 17.2 25.1 36.4 35.3 55.9 8.2 15.6 15.1 32 21.7 48.3 6 14.7 11.5 29.7 16 44.8 6.5 21.7 12.4 43.5 17.5 65.6 3.4 14.6 4.9 29.6 7.1 44.4-.1.7-.3 1.8-.3 3.3zm-858.5-501.4c.6 6.2.6 11.1 1.6 15.8 2.2 10.5 4.1 21.2 7.7 31.3 7.1 19.8 17.4 38 31.2 54.1 13.2 15.5 28 28.8 46.1 38.4 26.4 14 54.4 20.6 84.3 16.6 13.3-1.8 26.9-3.9 39.6-8 27.8-9.1 50.6-26.1 68.7-48.9 14.5-18.3 25.3-38.9 32.3-61.2 4.7-15 8.2-30.4 11.8-45.6 1.3-5.6 1.5-11.4 2.4-18.1-53.5 11.9-106.8 19.7-160.5 23.8-54.7 4-109.4 6.6-165.2 1.8zm-178.2-311c0 8 .6 15.6-.2 23-.8 7.1 2.5 10.7 7.7 14.5 24.9 18 51.1 33.6 78.8 46.9 25.3 12.1 51.1 22.7 78 30.7 12.9 3.9 25.8 8.1 39 10.7 19.9 4 40 7.3 60.1 10 15.3 2.1 30.7 3.3 46.1 3.9 12.6.5 25.2-.2 37.8-.9 13.3-.7 26.7-1.4 39.9-3 15.5-1.8 31.2-3.5 46.4-7.1 23.4-5.6 46.6-12.3 69.5-19.5 25.8-8.1 50.4-19.3 74.4-31.8 22.5-11.7 44.2-24.6 64.8-39.5 5.5-3.9 5.7-7.9 5.3-13-.1-2.1-.9-4.1-1.4-6.3-.9.2-1.8.4-2.7.7-20.4 5.7-40.7 11.8-61.3 17-26.7 6.7-53.4 12.9-80.3 18.6-18.4 3.9-37 7.1-55.6 10-15.8 2.5-31.7 4.2-47.6 6-16.3 1.8-32.6 4.5-48.9 4.7-24.4.3-48.8 1.8-73.2-1.6-15.8-2.3-31.9-3.4-47.6-6.1-21.4-3.8-42.7-8-63.8-13.2-35.6-8.7-70.6-19.4-105.1-31.8-19.9-7.3-39.4-15.1-60.1-22.9zm156.1 310.4c-92.9-8-182.8-21.1-265.1-67.2.7 1.6 1.1 2.3 1.2 3 3.7 15.5 7 31 11.1 46.3 6.5 24.7 15.2 48.7 26.5 71.7 6.4 12.9 13.9 25 23.1 36.2 13.7 16.6 30.4 27.5 52.1 29.3 16.5 1.4 32.3-2.4 47.1-9.3 28.7-13.3 50.6-34.9 69.2-59.8 11.9-15.9 22.8-32.7 34.8-50.2z"/></svg>